<?xml version="1.0" encoding="utf-8"?>
<!-- Generator: Adobe Illustrator 19.1.0, SVG Export Plug-In . SVG Version: 6.00 Build 0)  -->
<svg version="1.1" id="Layer_1" xmlns="http://www.w3.org/2000/svg" xmlns:xlink="http://www.w3.org/1999/xlink" x="0px" y="0px"
	 viewBox="0 0 150 150" enable-background="new 0 0 150 150" xml:space="preserve">
<g id="debateclub">
	<circle id="Background_49_" fill="#C43E28" cx="75" cy="75" r="75"/>
	<g id="Shadow_49_">
		<defs>
			<circle id="SVGID_121_" cx="75" cy="75" r="75"/>
		</defs>
		<clipPath id="SVGID_2_">
			<use xlink:href="#SVGID_121_"  overflow="visible"/>
		</clipPath>
		<polygon clip-path="url(#SVGID_2_)" fill="#A33322" points="98.2,45.6 95.8,48 76.6,28.8 71,56.4 48.8,64.5 67.8,83.5 64,115.2 
			53.6,119.7 83.8,150 150,150 150,97.4 		"/>
	</g>
	<g id="Object_49_">
		<path fill="#DDDDDD" d="M77.7,31.6c0-2.3-1.9-4.2-4.2-4.2c-2.3,0-4.2,1.9-4.2,4.2v4.9h8.5V31.6z"/>
		<path fill="#454545" d="M77.7,37.5v-2.1h-8.5v2.1c0,2,1.5,3.7,3.4,4.1v2.5h-0.1c-1.8,0-3.2,1.5-3.2,3.2v7.8c0,1.8,1.5,3.2,3.2,3.2
			h2c1.8,0,3.2-1.5,3.2-3.2v-7.8c0-1.8-1.5-3.2-3.2-3.2h-0.1v-2.5C76.3,41.3,77.7,39.5,77.7,37.5z"/>
		<polygon fill="#F0B91C" points="86.9,115.2 60.1,115.2 54.1,67.3 56.3,65.4 90,65.5 92.8,67.3 		"/>
		<polygon fill="#F99B21" points="53.6,62.6 54.1,67.3 92.8,67.3 93.4,62.6 		"/>
		<rect x="48.8" y="45.6" fill="#FFD45C" width="49.4" height="18.9"/>
		<rect x="53.6" y="112.6" fill="#F99B21" width="39.8" height="7.2"/>
		<rect x="69.2" y="34.6" fill="#F99B21" width="8.5" height="1.8"/>
		<g>
			<path fill="#F99B21" d="M73.5,56.4l3.2,2.3l-1.2-3.8l3.2-2.3h-3.9l-1.3-3.9l-1.3,3.9h-3.9l3.2,2.3l-1.2,3.8L73.5,56.4z
				 M73.5,56.4"/>
		</g>
		<g>
			<path fill="#F99B21" d="M64,57.3l2,1.5l-0.8-2.4l2-1.4h-2.4L64,52.5l-0.8,2.4h-2.4l2,1.4L62,58.7L64,57.3z M64,57.3"/>
		</g>
		<g>
			<path fill="#F99B21" d="M82.9,57.3l2,1.5l-0.8-2.4l2-1.4h-2.4l-0.8-2.4l-0.8,2.4h-2.4l2,1.4l-0.8,2.4L82.9,57.3z M82.9,57.3"/>
		</g>
	</g>
</g>
</svg>
