<svg id="Down_arrow" data-name="Down arrow" xmlns="http://www.w3.org/2000/svg" width="278" height="130" viewBox="0 0 278 130">
  <metadata><?xpacket begin="﻿" id="W5M0MpCehiHzreSzNTczkc9d"?>
<x:xmpmeta xmlns:x="adobe:ns:meta/" x:xmptk="Adobe XMP Core 5.6-c138 79.159824, 2016/09/14-01:09:01        ">
   <rdf:RDF xmlns:rdf="http://www.w3.org/1999/02/22-rdf-syntax-ns#">
      <rdf:Description rdf:about=""/>
   </rdf:RDF>
</x:xmpmeta>
                                                                                                    
                                                                                                    
                                                                                                    
                                                                                                    
                                                                                                    
                                                                                                    
                                                                                                    
                                                                                                    
                                                                                                    
                                                                                                    
                                                                                                    
                                                                                                    
                                                                                                    
                                                                                                    
                                                                                                    
                                                                                                    
                                                                                                    
                                                                                                    
                                                                                                    
                                                                                                    
                           
<?xpacket end="w"?></metadata>
<defs>
    <style>
      .cls-1 {
        fill: #fcfbf1;
        opacity: 0.8;
      }

      .cls-1, .cls-2 {
        fill-rule: evenodd;
      }
    </style>
  </defs>
  <path class="cls-1" d="M0,139.861a139,139,0,1,1,278,0"/>
  <path id="Let_s_go_this_way" data-name="Let’s go this way" class="cls-2" d="M45.923,93.474l13.773,6.91,3.084-6.159L60.8,93.23l-2.049,4.093L46.958,91.407Zm10.6-17.831-4.776,7.039,12.745,8.664,4.775-7.039L67.429,83.06l-3.478,5.126-4.013-2.728,3.374-4.973-1.834-1.247L58.1,84.212l-3.229-2.2,3.478-5.126ZM67.271,66.5l-1.65-1.483L59.354,72,61,73.488l2.362-2.632,9.811,8.823,1.544-1.72-9.811-8.823Zm4.977-.733,1.552-.551-1.664-6.169-2.039.769ZM85.157,52.2a6.155,6.155,0,0,0-.957-0.4,4.4,4.4,0,0,0-.895-0.193,5.118,5.118,0,0,0-1.3.075,4.607,4.607,0,0,0-1.835.842,5.011,5.011,0,0,0-1.383,1.39,4.249,4.249,0,0,0-.632,1.56,4,4,0,0,0,.656,2.986,3.42,3.42,0,0,0,1.127,1.07,4.154,4.154,0,0,0,1.286.464,4.572,4.572,0,0,0,1.284.054,11.537,11.537,0,0,0,1.141-.172l1.578-.339q0.4-.08.851-0.142a2.863,2.863,0,0,1,.888.015,2.719,2.719,0,0,1,.852.308,2.266,2.266,0,0,1,.746.706,2.492,2.492,0,0,1,.474,1.966,2.539,2.539,0,0,1-1.1,1.625,2.588,2.588,0,0,1-1.132.475,2.436,2.436,0,0,1-1.068-.086,3.415,3.415,0,0,1-.892-0.465,3.231,3.231,0,0,1-.784-0.8l-1.624,1.752a5.415,5.415,0,0,0,1.194,1.069,4.863,4.863,0,0,0,1.583.657,5.028,5.028,0,0,0,1.818.085,4.721,4.721,0,0,0,2.042-.888,5.43,5.43,0,0,0,1.435-1.437,4.54,4.54,0,0,0,.708-1.733,4.716,4.716,0,0,0-.048-1.869,5.261,5.261,0,0,0-.845-1.862,5.165,5.165,0,0,0-.866-0.96,3.572,3.572,0,0,0-1.17-.663,4.9,4.9,0,0,0-1.546-.246,8.8,8.8,0,0,0-2,.24l-1.635.379a4.1,4.1,0,0,1-1.015.109,2.27,2.27,0,0,1-.714-0.13,1.379,1.379,0,0,1-.455-0.267,2.009,2.009,0,0,1-.272-0.31,1.819,1.819,0,0,1-.3-1.389,2.206,2.206,0,0,1,1.029-1.4,2.572,2.572,0,0,1,1.705-.492,2.651,2.651,0,0,1,.624.16,3.676,3.676,0,0,1,.522.26Zm22.625-2.911,3.6-1.32a4.6,4.6,0,0,1,.129,1.4,4.175,4.175,0,0,1-.431,1.556,4.418,4.418,0,0,1-1.123,1.558,5.256,5.256,0,0,1-1.644.943,6.141,6.141,0,0,1-2.081.391,4.575,4.575,0,0,1-2.094-.523,5.708,5.708,0,0,1-1.771-1.4,6.436,6.436,0,0,1-1.181-2.012,6.8,6.8,0,0,1-.419-2.427,5.416,5.416,0,0,1,.469-2.232,6.229,6.229,0,0,1,1.105-1.572,5.457,5.457,0,0,1,2.177-1.344,6.91,6.91,0,0,1,1.367-.35,4.132,4.132,0,0,1,1.439.049,5.691,5.691,0,0,1,1.27.4,6.874,6.874,0,0,1,1.131.627l1.3-1.882a6.86,6.86,0,0,0-1.264-.768,6.5,6.5,0,0,0-1.872-.545,7.035,7.035,0,0,0-2.076-.027,9.567,9.567,0,0,0-2.032.5,8.264,8.264,0,0,0-2.879,1.745,7.4,7.4,0,0,0-2.432,5.287,8.32,8.32,0,0,0,.535,3.313,8.656,8.656,0,0,0,1.626,2.765,7.987,7.987,0,0,0,2.522,1.919,6.567,6.567,0,0,0,2.721.714,7.9,7.9,0,0,0,2.926-.543,9.407,9.407,0,0,0,2.377-1.3,6.289,6.289,0,0,0,1.871-2.348,7.169,7.169,0,0,0,.684-3.107,10.277,10.277,0,0,0-.681-3.542l-0.039-.108-5.965,2.186Zm13.234-12.96a7.791,7.791,0,0,0-2.28,2.027,7.646,7.646,0,0,0-1.3,2.753,8.629,8.629,0,0,0,.882,6.262,7.683,7.683,0,0,0,2.012,2.273,7.784,7.784,0,0,0,2.752,1.316,8.658,8.658,0,0,0,6.335-.9,7.8,7.8,0,0,0,2.28-2.027A7.69,7.69,0,0,0,133,45.3a8.628,8.628,0,0,0-.883-6.262,7.655,7.655,0,0,0-2.013-2.284,7.8,7.8,0,0,0-2.752-1.316A8.657,8.657,0,0,0,121.016,36.333Zm2.676,12.578a5.273,5.273,0,0,1-1.956-.948,5.519,5.519,0,0,1-1.424-1.67,6.93,6.93,0,0,1-.662-4.7,5.492,5.492,0,0,1,.905-2.011,5.289,5.289,0,0,1,1.617-1.452,6.377,6.377,0,0,1,4.566-.645,5.277,5.277,0,0,1,1.956.947,5.494,5.494,0,0,1,1.425,1.682,6.919,6.919,0,0,1,.662,4.7,5.512,5.512,0,0,1-.906,2,5.279,5.279,0,0,1-1.618,1.453A6.379,6.379,0,0,1,123.692,48.911ZM154.1,37.86l0.24-2.207-9.323-1.015-0.239,2.207,3.513,0.382-1.426,13.125,2.3,0.25,1.426-13.125Zm7.825-.679-2.23-.6-4,14.892,2.23,0.6,1.891-7.033,6.468,1.743-1.891,7.033,2.231,0.6,4-14.892-2.231-.6-1.536,5.716L160.389,42.9Zm15.089,4.857-5.969,14.217,2.129,0.9,5.969-14.217Zm14.606,9.977a6.134,6.134,0,0,0-.049-1.038,4.353,4.353,0,0,0-.212-0.891,5.136,5.136,0,0,0-.627-1.141,4.612,4.612,0,0,0-1.551-1.293,5.008,5.008,0,0,0-1.85-.649,4.237,4.237,0,0,0-1.678.1,3.991,3.991,0,0,0-2.408,1.881,3.428,3.428,0,0,0-.478,1.48,4.178,4.178,0,0,0,.137,1.361,4.589,4.589,0,0,0,.506,1.183q0.327,0.533.648,0.956l0.986,1.278q0.245,0.325.5,0.707a2.871,2.871,0,0,1,.37.809,2.737,2.737,0,0,1,.09.9,2.26,2.26,0,0,1-.314.978,2.487,2.487,0,0,1-1.567,1.276,2.536,2.536,0,0,1-1.939-.291,2.59,2.59,0,0,1-.916-0.818,2.44,2.44,0,0,1-.384-1,3.456,3.456,0,0,1,.035-1.006,3.234,3.234,0,0,1,.382-1.052l-2.279-.71a5.4,5.4,0,0,0-.448,1.54,4.846,4.846,0,0,0,.091,1.713,5.023,5.023,0,0,0,.708,1.678,4.722,4.722,0,0,0,1.682,1.461,5.421,5.421,0,0,0,1.914.675A4.532,4.532,0,0,0,184.834,62a4.706,4.706,0,0,0,1.663-.849,5.238,5.238,0,0,0,1.313-1.567,5.112,5.112,0,0,0,.491-1.2,3.56,3.56,0,0,0,.093-1.343,4.909,4.909,0,0,0-.445-1.5,8.808,8.808,0,0,0-1.08-1.7l-1.047-1.313a4.134,4.134,0,0,1-.536-0.87,2.267,2.267,0,0,1-.191-0.7,1.392,1.392,0,0,1,.044-0.526,2.045,2.045,0,0,1,.162-0.379,1.817,1.817,0,0,1,1.123-.869,2.2,2.2,0,0,1,1.708.324,2.576,2.576,0,0,1,1.179,1.327,2.705,2.705,0,0,1,.125.632,3.774,3.774,0,0,1-.009.584Zm12.337,5.5L196.843,73.7,207.49,68.95,202.5,79.48,219.032,72.9l-1.779-1.816-10.3,4.216,5.068-10.611-10.794,4.768,4.508-10.126Zm10.295,36.546,1.375,2.139,9.764-14.977L207.529,83.6l1.375,2.139,4.039-.595,3.563,5.541Zm1.08-9.3,5.677-.825-3.152,4.753Zm2.087,15.787,0.937,2.114,6.081-2.7,10.053,1.073-1.068-2.409-7.089-.771,4.184-5.78-1.068-2.409L223.5,97.85Z"/>
  <path id="arrow" class="cls-2" d="M138,105L121,87.783,122.762,86,138,101.425,153.23,86,155,87.783Z"/>
</svg>
