<svg id="Down_arrow" data-name="Down arrow" xmlns="http://www.w3.org/2000/svg" width="278" height="130" viewBox="0 0 278 130">
  <metadata><?xpacket begin="﻿" id="W5M0MpCehiHzreSzNTczkc9d"?>
<x:xmpmeta xmlns:x="adobe:ns:meta/" x:xmptk="Adobe XMP Core 5.6-c138 79.159824, 2016/09/14-01:09:01        ">
   <rdf:RDF xmlns:rdf="http://www.w3.org/1999/02/22-rdf-syntax-ns#">
      <rdf:Description rdf:about=""/>
   </rdf:RDF>
</x:xmpmeta>
                                                                                                    
                                                                                                    
                                                                                                    
                                                                                                    
                                                                                                    
                                                                                                    
                                                                                                    
                                                                                                    
                                                                                                    
                                                                                                    
                                                                                                    
                                                                                                    
                                                                                                    
                                                                                                    
                                                                                                    
                                                                                                    
                                                                                                    
                                                                                                    
                                                                                                    
                                                                                                    
                           
<?xpacket end="w"?></metadata>
<defs>
    <style>
      .cls-1 {
        fill: #fcfbf1;
        opacity: 0.8;
      }

      .cls-1, .cls-2 {
        fill-rule: evenodd;
      }
    </style>
  </defs>
  <path class="cls-1" d="M278-9.986A138.992,138.992,0,0,1,139,129,138.992,138.992,0,0,1,0-9.986"/>
  <path id="Let_s_go_this_way" data-name="Let’s go this way" class="cls-2" d="M57.4,26.164l-14.016,6.4,2.857,6.269,2.017-.921-1.9-4.165,12-5.48Zm9.141,16.725-4.516-7.208L48.973,43.874l4.516,7.208L55.368,49.9l-3.289-5.249,4.109-2.58,3.191,5.093,1.879-1.179-3.191-5.093,3.307-2.076,3.289,5.25Zm6,10.976,1.7-1.422-6.009-7.206-1.7,1.422L68.8,49.375,58.67,57.835l1.48,1.775,10.125-8.46ZM72.9,58.253L73.57,59.76l6.018-2.133-0.922-1.977Zm15.519,9.4a6.172,6.172,0,0,0,.084-1.036,4.42,4.42,0,0,0-.1-0.911,5.129,5.129,0,0,0-.477-1.212,4.612,4.612,0,0,0-1.373-1.482,5.008,5.008,0,0,0-1.751-.881,4.238,4.238,0,0,0-1.677-.114A3.991,3.991,0,0,0,80.5,63.578a3.422,3.422,0,0,0-.664,1.406,4.159,4.159,0,0,0-.038,1.368,4.582,4.582,0,0,0,.35,1.238q0.255,0.571.52,1.032l0.814,1.394q0.2,0.353.4,0.764a2.87,2.87,0,0,1,.264.849,2.723,2.723,0,0,1-.026.906,2.268,2.268,0,0,1-.436.93,2.487,2.487,0,0,1-1.718,1.064,2.535,2.535,0,0,1-1.886-.537,2.591,2.591,0,0,1-.8-0.928,2.445,2.445,0,0,1-.252-1.042,3.428,3.428,0,0,1,.163-0.994,3.232,3.232,0,0,1,.514-0.995l-2.17-1a5.421,5.421,0,0,0-.642,1.47,4.875,4.875,0,0,0-.129,1.711,5.039,5.039,0,0,0,.487,1.755,4.727,4.727,0,0,0,1.481,1.664,5.425,5.425,0,0,0,1.812.916,4.53,4.53,0,0,0,1.866.132,4.7,4.7,0,0,0,1.758-.629,5.253,5.253,0,0,0,1.5-1.385,5.166,5.166,0,0,0,.64-1.124,3.577,3.577,0,0,0,.264-1.32,4.91,4.91,0,0,0-.249-1.547,8.819,8.819,0,0,0-.853-1.828l-0.87-1.436a4.108,4.108,0,0,1-.421-0.931,2.272,2.272,0,0,1-.1-0.719,1.381,1.381,0,0,1,.111-0.516,2.01,2.01,0,0,1,.209-0.355,1.816,1.816,0,0,1,1.225-.718,2.2,2.2,0,0,1,1.652.541,2.576,2.576,0,0,1,1,1.468,2.656,2.656,0,0,1,.042.643,3.693,3.693,0,0,1-.084.578Zm15.262,16.075,3.55,1.451a4.6,4.6,0,0,1-.847,1.123,4.183,4.183,0,0,1-1.366.86,4.415,4.415,0,0,1-1.878.4,5.255,5.255,0,0,1-1.85-.411,6.153,6.153,0,0,1-1.8-1.114,4.581,4.581,0,0,1-1.2-1.8,5.728,5.728,0,0,1-.37-2.228,6.445,6.445,0,0,1,.48-2.283,6.789,6.789,0,0,1,1.323-2.077,5.406,5.406,0,0,1,1.848-1.334,6.222,6.222,0,0,1,1.874-.417,5.456,5.456,0,0,1,2.514.474,6.911,6.911,0,0,1,1.245.662,4.131,4.131,0,0,1,1.031,1.006,5.658,5.658,0,0,1,.67,1.152,6.827,6.827,0,0,1,.415,1.226l2.23-.512a6.925,6.925,0,0,0-.419-1.42,6.536,6.536,0,0,0-1.017-1.665A7.05,7.05,0,0,0,108.6,75.4a9.6,9.6,0,0,0-1.837-1,8.259,8.259,0,0,0-3.3-.651,7.381,7.381,0,0,0-5.354,2.269,8.313,8.313,0,0,0-1.832,2.81,8.662,8.662,0,0,0-.657,3.14,8,8,0,0,0,.574,3.119,6.577,6.577,0,0,0,1.532,2.362,7.909,7.909,0,0,0,2.527,1.57,9.4,9.4,0,0,0,2.634.639,6.276,6.276,0,0,0,2.963-.475,7.138,7.138,0,0,0,2.595-1.836,10.282,10.282,0,0,0,1.88-3.078l0.043-.107-5.88-2.4Zm17.266-4.284a7.8,7.8,0,0,0-2.8,1.214,7.663,7.663,0,0,0-2.095,2.209,8.632,8.632,0,0,0-1.111,6.225,7.7,7.7,0,0,0,1.2,2.787,7.8,7.8,0,0,0,2.2,2.109,8.657,8.657,0,0,0,6.3,1.126,7.794,7.794,0,0,0,2.8-1.214,7.682,7.682,0,0,0,2.093-2.2,8.619,8.619,0,0,0,1.111-6.225,7.658,7.658,0,0,0-1.2-2.8,7.81,7.81,0,0,0-2.2-2.109A8.66,8.66,0,0,0,120.949,79.449Zm-1.374,12.786a5.278,5.278,0,0,1-1.563-1.511,5.508,5.508,0,0,1-.833-2.031,6.917,6.917,0,0,1,.833-4.668A5.489,5.489,0,0,1,119.5,82.4a5.281,5.281,0,0,1,1.989-.875,6.378,6.378,0,0,1,4.539.812,5.3,5.3,0,0,1,1.564,1.511,5.491,5.491,0,0,1,.83,2.042,6.918,6.918,0,0,1-.833,4.668,5.512,5.512,0,0,1-1.483,1.617,5.285,5.285,0,0,1-1.99.875A6.382,6.382,0,0,1,119.575,92.235Zm31.788-9.511L151.2,80.511l-9.353.675L142.01,83.4l3.525-.255,0.949,13.168,2.3-.166-0.948-13.168Zm5.54-3.17-2.251.518L158.1,95.1l2.251-.518-1.631-7.1,6.528-1.5,1.631,7.1,2.251-.518-3.454-15.029-2.251.518,1.326,5.768-6.528,1.5Zm13.636-3.808,5.444,14.427,2.161-.817L172.7,74.93Zm15.72-4.719a6.2,6.2,0,0,0-.9-0.523A4.41,4.41,0,0,0,184.5,70.2a5.119,5.119,0,0,0-1.3-.093,4.609,4.609,0,0,0-1.927.6,5.012,5.012,0,0,0-1.55,1.2,4.249,4.249,0,0,0-.827,1.466,4,4,0,0,0,.268,3.045,3.406,3.406,0,0,0,.981,1.207,4.148,4.148,0,0,0,1.215.625,4.576,4.576,0,0,0,1.267.218q0.624,0.016,1.154-.024l1.608-.133q0.405-.028.862-0.032a2.854,2.854,0,0,1,.879.129,2.725,2.725,0,0,1,.806.415,2.273,2.273,0,0,1,.649.8,2.492,2.492,0,0,1,.217,2.011,2.537,2.537,0,0,1-1.3,1.471,2.584,2.584,0,0,1-1.183.325,2.435,2.435,0,0,1-1.048-.222,3.422,3.422,0,0,1-.825-0.576,3.241,3.241,0,0,1-.675-0.894l-1.835,1.529a5.436,5.436,0,0,0,1.047,1.214,4.874,4.874,0,0,0,1.486.855,5.035,5.035,0,0,0,1.793.318,4.725,4.725,0,0,0,2.139-.619,5.43,5.43,0,0,0,1.607-1.241,4.532,4.532,0,0,0,.924-1.628,4.717,4.717,0,0,0,.193-1.859,5.251,5.251,0,0,0-.6-1.955,5.15,5.15,0,0,0-.735-1.063,3.583,3.583,0,0,0-1.076-.808,4.9,4.9,0,0,0-1.5-.443,8.8,8.8,0,0,0-2.016-.019l-1.67.166a4.09,4.09,0,0,1-1.02-.022,2.276,2.276,0,0,1-.692-0.221,1.383,1.383,0,0,1-.417-0.324,2.018,2.018,0,0,1-.23-0.342,1.818,1.818,0,0,1-.118-1.416,2.206,2.206,0,0,1,1.2-1.258,2.57,2.57,0,0,1,1.754-.269,2.633,2.633,0,0,1,.6.239,3.683,3.683,0,0,1,.485.325Zm7.508-7.093,16.043,7.4L205.245,60.6l10.432,5.17-6.285-16.655-1.844,1.75,4.035,10.379-10.512-5.254,4.578,10.885-10.037-4.685ZM229,47.37l1.452-2.087L212.9,41.949l9,15.629,1.452-2.087-2.087-3.513,3.762-5.407Zm-9,2.542-2.924-4.941,5.59,1.108Zm13.832-11.339L234.84,36.5l-5.977-2.922-5.646-8.4-1.156,2.368,3.971,5.93-7.113.511-1.156,2.368,10.086-.7Z"/>
  <path id="arrow" class="cls-2" d="M140,25.838l17,17.2-1.765,1.785L140,29.407,124.77,44.818l-1.765-1.785Z"/>
</svg>
